<svg width="96" height="96" viewBox="0 0 96 96" fill="none" xmlns="http://www.w3.org/2000/svg" role="img" aria-labelledby="title desc">
  <title id="title">Símbolo CyberSOS</title>
  <desc id="desc">Baliza de emergencia digital con ondas de señal y nodos de red</desc>
  <rect x="8" y="8" width="80" height="80" rx="24" fill="url(#night)"/>
  <path d="M20 39c0-10 6-18 16-22M76 39c0-10-6-18-16-22" stroke="#A78BFA" stroke-width="4" stroke-linecap="round"/>
  <path d="M15 30c3-9 9-16 18-20M81 30c-3-9-9-16-18-20" stroke="#EC4899" stroke-width="4" stroke-linecap="round"/>
  <circle cx="18" cy="29" r="3.5" fill="#F9A8D4"/>
  <circle cx="78" cy="29" r="3.5" fill="#F9A8D4"/>
  <path d="M31 58c0-12 7-21 17-21s17 9 17 21H31Z" fill="url(#beacon)"/>
  <path d="M35 57c1-9 6-15 13-15s12 6 13 15" stroke="white" stroke-width="3.5" stroke-linecap="round"/>
  <path d="M27 65h42" stroke="white" stroke-width="7" stroke-linecap="round"/>
  <path d="M35 72h26" stroke="#A78BFA" stroke-width="5" stroke-linecap="round"/>
  <circle cx="48" cy="51" r="4" fill="white"/>
  <path d="M48 46v10M43 51h10" stroke="#BE185D" stroke-width="2.5" stroke-linecap="round"/>
  <defs><linearGradient id="night" x1="10" y1="10" x2="86" y2="86" gradientUnits="userSpaceOnUse"><stop stop-color="#21153D"/><stop offset="1" stop-color="#3B1D55"/></linearGradient><linearGradient id="beacon" x1="31" y1="37" x2="65" y2="58" gradientUnits="userSpaceOnUse"><stop stop-color="#EC4899"/><stop offset="1" stop-color="#7C3AED"/></linearGradient></defs>
</svg>
